<?xml version="1.0" standalone="no"?>
<!DOCTYPE svg PUBLIC "-//W3C//DTD SVG 20010904//EN"
 "http://www.w3.org/TR/2001/REC-SVG-20010904/DTD/svg10.dtd">
<svg version="1.0" xmlns="http://www.w3.org/2000/svg"
 width="78.000000pt" height="76.000000pt" viewBox="0 0 78.000000 76.000000"
 preserveAspectRatio="xMidYMid meet">

<g transform="translate(0.000000,76.000000) scale(0.100000,-0.100000)"
fill="#424242" stroke="none">
<path d="M50 380 l0 -340 140 0 140 0 0 90 0 90 -47 0 -48 0 80 80 80 80 -80
80 -80 80 48 0 47 0 0 90 0 90 -140 0 -140 0 0 -340z"/>
<path d="M460 630 l0 -90 47 0 48 0 -80 -80 -80 -80 80 -80 80 -80 -48 0 -47
0 0 -90 0 -90 140 0 140 0 0 340 0 340 -140 0 -140 0 0 -90z"/>
</g>
</svg>
